# xmcd
#
# Track frame offsets: 
#        150
#        20244
#        45595
#        68955
#        90222
#        111180
#        133025
#        156852
#
# Disc length: 2333 seconds
#
# Revision: 0
# Processed by: cddbd v1.5.2PL0 Copyright (c) Steve Scherf et al.
# Submitted via: ExactAudioCopy v0.99pb5
#
DISCID=65091b08
DTITLE=Nod - Magnetic Anomaly
DYEAR=1998
DGENRE=Smells Like
TTITLE0=Magnetic Anomaly
TTITLE1=Prescription Bottle
TTITLE2=Ron's Wood
TTITLE3=Owen's Guitar
TTITLE4=I'm Something New
TTITLE5=Owe Love
TTITLE6=Alba Kirky
TTITLE7=500 Hurts
EXTD=
EXTT0=
EXTT1=
EXTT2=
EXTT3=
EXTT4=
EXTT5=
EXTT6=
EXTT7=
PLAYORDER=
